<?xml version="1.0" encoding="utf-8"?>
<!-- Generator: Adobe Illustrator 24.0.1, SVG Export Plug-In . SVG Version: 6.00 Build 0)  -->
<svg version="1.1" id="Layer_1" xmlns="http://www.w3.org/2000/svg" xmlns:xlink="http://www.w3.org/1999/xlink" x="0px" y="0px"
	 viewBox="0 0 1920 1080" style="enable-background:new 0 0 1920 1080;" xml:space="preserve">
<style type="text/css">
	.st0{fill:#D0F0E4;}
	.st1{fill:none;stroke:#FFCF2D;stroke-miterlimit:10;}
	.st2{fill:none;stroke:#FE5244;stroke-miterlimit:10;}
	.st3{fill:#A0505A;}
	.st4{fill:#FFCF2D;}
	.st5{fill:#FFFFFF;stroke:#9A3B82;stroke-miterlimit:10;}
	.st6{fill:none;stroke:#9A3B82;stroke-miterlimit:10;}
	.st7{fill:#9A3B82;}
	.st8{fill:#FE5244;}
	.st9{fill:none;stroke:#FFFFFF;stroke-linecap:round;stroke-miterlimit:10;}
	.st10{fill:#FFFFFF;stroke:#3FB1B5;stroke-linecap:round;stroke-miterlimit:10;}
	.st11{fill:#FFFFFF;stroke:#3FB1B5;stroke-linecap:round;stroke-miterlimit:9.9997;}
	.st12{fill:#FFFFFF;stroke:#FE5244;stroke-miterlimit:10;}
	.st13{fill:none;stroke:#73325A;stroke-linecap:round;stroke-miterlimit:10;}
	.st14{fill:#73325A;}
	.st15{fill:#3FB1B5;}
	.st16{fill:none;stroke:#3FB1B5;stroke-linecap:round;stroke-miterlimit:10;}
	.st17{fill:#E57281;}
	.st18{fill:none;stroke:#FE5244;stroke-linecap:round;stroke-miterlimit:10;}
	.st19{fill:none;stroke:#9A3B82;stroke-linecap:round;stroke-miterlimit:10;}
	.st20{fill:#FFFFFF;stroke:#FE5244;stroke-miterlimit:9.9997;}
	.st21{fill:#FFFFFF;}
</style>
<g id="GRASS">
	<path class="st0" d="M1430.9,928.1l-309.6,0.5c-37.9,0.2-78.3,0.4-120.1,0.4c-101.8,0-194.8-0.8-265.9-2.1H449
		c0-47.4,55.7-26.6,70.3-18.2c17.1,9.7-4.9-42,29.9-42c29.8,0,46.9,14,46.9,14s0.8-27.3,29.1-27.7c28.3-0.4,46.2,22.9,68.6,42.1
		c9.2,7.9,20.3,14.2,30.8,19c72.4-1.4,169.7-2.3,276.6-2.3c50.7,0,99.2,0.2,143.9,0.6l0,0c79.5,0,152.2-39.1,172.9-48.9
		c51-24.3,26.8,33.6,26.8,33.6s39.3-15.5,67-15.4C1450.9,881.9,1430.9,928.1,1430.9,928.1z"/>
	<g>
		<g>
			<path class="st1" d="M1270.3,926.7c0,0,7.8-65.9-43.1-87.2c0,0-7.5,71.7,17.9,67c9.5-1.8-10.9-19.2-44.3-19.9
				c0,0,25.6,40.2,56.6,40.8"/>
			<path class="st1" d="M1257.5,927.3c0,0,2.9-30.2,34.3-39.6c28.4-8.5-21.3,38.8-21.3,38.8"/>
		</g>
	</g>
	<g>
		<path class="st2" d="M552.3,924.6c0,0-45-28.9-57.7-76c0,0,39.9,11.2,56.8,34.9c0,0,6.9-54.1,23.7-72.3c0,0,9.1,12.2,10.2,57.4
			c0,0,20.5-32.8,35.8-43.3c0,0-2.1,42.6-13,64.4c0,0,15.8-11.5,26.4-0.2c10.7,11.3-10.2,27.8-10.2,27.8"/>
		<path class="st2" d="M575,812.8c0,0,0.4,98.5-4.3,111.3"/>
		<path class="st2" d="M619.5,827.7c0,0-31.4,75.6-48.8,96.3"/>
		<path class="st2" d="M607.5,890c-1.2,4-9.1,14.9-10.7,10.2c-1.5-4.7,12.8-12.3,16.4-13.5"/>
		<path class="st2" d="M551.3,883.5c2.1,3.8,9.3,14.6,2,14.3c-4.8-0.2-0.8-22.8-0.8-22.8"/>
	</g>
</g>
<g id="_x32__CHARACTER">
	<g id="LEGS_1_">
		<g id="LEFT_LEG_1_">
			<g>
				<path class="st3" d="M1145,843.6c-17.9,8.2-16.2,23.9-16.3,34.4c-0.2,11.2-23.1,17.1-23.1,17.1c6.1-18,1.8-36.5,1.8-36.5
					L1145,843.6z"/>
				<path class="st4" d="M1164,885l-4.1,2.1l-8.5-18.3c-0.4-1-1.4-1.5-2.5-1.5c-0.3,0-0.7,0.1-1.1,0.2c-0.9,0.3-1.5,1.1-1.6,2
					l-3.8,26.5l-49.4,25.2c-1.5-3.3,7.7-11.6,12.6-25.9c0,0,22.9-5.9,23.1-17.1c0.2-10.5-1.5-26.3,16.3-34.4l3.8-1.5
					C1169.3,850.9,1164,885,1164,885z"/>
			</g>
			<path class="st5" d="M1148.8,712.4v129.7l-40.9,16.6l-30.6-130.2C1091,729,1113.9,726.3,1148.8,712.4z"/>
			<line class="st6" x1="1118.8" y1="723.8" x2="1126.8" y2="851"/>
			<path class="st7" d="M1148.8,712.4v34l-69.5-9.4l-1.9-8.5C1091,729,1113.9,726.3,1148.8,712.4z"/>
		</g>
		<g id="RIGHT_LEG_1_">
			<g>
				<path class="st4" d="M1354.7,624.4l-26.4,5.2c-0.9,0.2-1.8-0.1-2.4-0.7c-0.4-0.5-0.7-1-0.7-1.6c0-0.6,0.3-1.3,0.8-1.7l14.7-12.9
					l-3.3-2.7c0,0-34.1,6.3-36.1,26.2l2.6,2.7c13.4,12.3,27.9,6,38,2.8c9.7-3,21.2,11,23.5,13.9c0,0,0.1,0,0.1,0
					c15.2-0.5,26,4.6,28.7,2.3L1354.7,624.4z"/>
				<path class="st3" d="M1304,638.7c13.4,12.3,27.9,6,38,2.8c10.8-3.4,23.6,13.9,23.6,13.9c-19.1,0.6-35.3,10-35.3,10L1304,638.7z"
					/>
			</g>
			<path class="st5" d="M1140.9,713.5c0,0,6.6,42,57.6,41.2s131.2-89.5,131.2-89.5l-28.2-29L1140.9,713.5z"/>
			<path class="st6" d="M1170.3,702.1c1.7,11.1,9.6,21.5,33.8,21.1c35.9-0.5,86.7-44.7,113.5-70.7"/>
		</g>
	</g>
	<g id="DRESS_1_">
		<path class="st8" d="M1363.4,550.5c-4.6-1.6-15.7,4-24,13.8c-9,10.5-12.6,21.8-8.6,24.7l-126.1-62.8c-6.2-3.1-13.3,2.2-11.6,8.5
			l38.2,135.4c-129.3,78.6-170.8,55-170.8,55v-445c0,0,0,0,0,0c1.1,2.6,12.9,0.8,26.5-4.2c12.4-4.5,22-10.1,22.6-13l0,0v140.2
			c0,8.8,5.1,16.9,13.3,21.2L1363.4,550.5z"/>
		<path class="st8" d="M1363.4,550.5c-4.6-1.6-15.7,4-24,13.8c-9,10.5-12.6,21.8-8.6,24.7l-126.1-62.8c-6.2-3.1-13.3,2.2-11.6,8.5
			l38.2,136c-32.9,20-60.1,32.8-82.4,41.7c-34.9,13.8-57.8,16.6-71.5,16.1c-11.9-0.4-16.9-3.3-16.9-3.3v-445c0,0,0,0,0,0
			c1.1,2.6,12.9,0.8,26.5-4.2c12.4-4.5,22-10.1,22.6-13l0,0v140.2c0,8.8,5.1,16.9,13.3,21.2L1363.4,550.5z"/>
		<line class="st9" x1="1182.5" y1="515.3" x2="1330.7" y2="590.6"/>
		<polygon class="st4" points="1126.2,426.3 1109.6,516.8 1194.5,462.1 		"/>
		<polyline class="st9" points="1126.2,426.3 1109.6,516.8 1194.5,462.1 		"/>
	</g>
	<g id="ARMS_1_">
		<g id="LEFT_ARM_1_">
			<g>
				<g>
					<path class="st10" d="M1125.6,251.7l-109.5,21c-4,0.8-8.2-2.6-9.3-7.5c-1.1-4.9,1.3-9.6,5.4-10.4l109.5-21L1125.6,251.7z"/>
					
						<ellipse transform="matrix(0.9646 -0.2637 0.2637 0.9646 -24.2579 304.8399)" class="st11" cx="1123.6" cy="242.8" rx="7.5" ry="9.2"/>
				</g>
				<path class="st8" d="M1063.1,260.7c0,0-35.4,37.3-31.6,45.5c5,4.7,9.1,6.8,8.5,8.5c-0.7,1.9-9.1,13.3-9.1,13.3l-0.8-8.5
					l-8.1,2.5c0,0,8.6-11.7,9.1-15.3c-3.5-2.5-10.7-7.7-10.5-11.4c0.3-3.9,12.8-17.6,21.9-27l-13.7,4.3l-2.7-11.9l24.7-4.3
					L1063.1,260.7z"/>
				<ellipse class="st12" cx="1058.3" cy="255.3" rx="7.5" ry="7"/>
			</g>
			<path class="st7" d="M1109.4,263.1c-0.6,2.9-10.1,8.5-22.6,13c-13.5,4.9-25.4,6.8-26.5,4.2c0,0,0,0,0,0
				c-0.9-2.7,9.1-8.7,22.5-13.6c13.5-4.9,25.4-6.8,26.5-4.2C1109.5,262.6,1109.5,262.8,1109.4,263.1z"/>
			<path class="st3" d="M1100.3,242.4l-1.4,19.5l-0.7,9.3c-3.3,1.6-7.1,3.2-11.3,4.8c-7.1,2.6-13.7,4.3-18.6,5v-17.9l19.9-3.8
				c0,0,1.1-6.7,3.2-12.2C1093.5,241.6,1100.3,242.4,1100.3,242.4z"/>
			<path class="st13" d="M1088.8,258.6c-0.3,1.1-9,3.7-9,9.6"/>
			<path class="st14" d="M1098.9,262l-0.7,9.3c-3.3,1.6-7.1,3.2-11.3,4.8c-7.1,2.6-13.7,4.3-18.6,5V273c3.9-2.1,9-4.4,14.6-6.5
				C1088.8,264.4,1094.4,262.8,1098.9,262z"/>
			<g>
				<path class="st3" d="M1085.8,252.2l-22.2,4.8c-1.2,0.2-2.3-0.6-2.3-1.9v-12.6c0-1.7,1.1-3.2,2.7-3.7l22-6.7
					c1.4-0.4,2.8,0.6,2.8,2.1v14.4C1088.7,250.3,1087.5,251.8,1085.8,252.2z"/>
				<path class="st13" d="M1069.2,255c-1.2,0.2-2.4-0.6-2.4-1.8v-12.1c0-1.6,1.1-3,2.8-3.5"/>
				<path class="st13" d="M1075.6,253.7c-1.2,0.2-2.4-0.6-2.4-1.8v-12.5c0-1.7,1.1-3.1,2.8-3.6"/>
				<path class="st13" d="M1082.8,252.3c-1.2,0.2-2.4-0.7-2.4-1.9v-12.9c0-1.7,1.1-3.2,2.8-3.7"/>
			</g>
		</g>
		<g id="RIGHT_ARM_1_">
			<path class="st7" d="M1353.6,574.9c-9,10.6-19,17-22.9,14.1s-0.3-14.1,8.6-24.7c8.4-9.8,19.4-15.5,24-13.8l0.9,0.5
				C1368.2,553.9,1362.5,564.4,1353.6,574.9z"/>
			<path class="st3" d="M1394.1,592.7l-6,3c-2.4,1.2-5.3,0.3-6.6-1.9l-6.3-10.9l-9.5-3c1.1,0.4,5.1,2.3,3.9,9.5l-22.3-7.8l-7.7-2.7
				l-7.3-4.4c1.7-3.2,4-6.7,7-10.2c2.4-2.9,5.1-5.4,7.7-7.5l7.6,5l7.8,0.8l12.6,1.3c2,0.2,4,0.8,5.7,1.8l10.1,6.7
				c1.5,1,2.4,2.5,2.7,4.1l2,13.4C1395.8,591.1,1395.2,592.2,1394.1,592.7z"/>
			<path class="st13" d="M1379.4,570.9l8.7,5.8c1.3,0.8,2.1,2.1,2.3,3.6l1.8,10.8c0.1,1-0.4,1.9-1.3,2.3"/>
			<path class="st13" d="M1374,572.8l8.7,5.8c1.3,0.8,2.1,2.1,2.3,3.6l1.8,10.8c0.1,1-0.4,1.9-1.3,2.3"/>
			<line class="st13" x1="1365.8" y1="579.8" x2="1359.4" y2="577.8"/>
			<path class="st14" d="M1362.5,562.6c-2.1,3.8-5.2,8-8.8,12.3c-2.1,2.4-4.2,4.6-6.3,6.6l-7.7-2.7l-7.3-4.4c1.7-3.2,4-6.7,7-10.2
				c2.4-2.9,5.1-5.4,7.7-7.5l7.6,5L1362.5,562.6z"/>
		</g>
	</g>
	<g id="HEAD_1_">
		<g id="CAP">
			<polygon class="st8" points="1133.2,360.7 1189.3,384 1209.4,438.9 1168.7,411.6 1149.7,389.9 			"/>
			<path class="st7" d="M1149.7,389.9c0,0,18.4,3,25.8,22.1l3.9-3.7c0,0-7.1-18.7-25.9-23.5L1149.7,389.9z"/>
			<path class="st4" d="M1259.2,413.7c-6.3-3.3-12.1-5.2-14-4.5c0.1-0.3,0.2-0.6,0.2-1c-0.1-1.1-1.1-1.9-2.2-1.9c-0.1,0-0.1,0-0.2,0
				c-1.2,0.1-2.1,1.1-2,2.2c0,0.1,0,0.1,0,0.2l-6.7,4c-1.5,0.9-3.3,1-4.9,0.1s-2.5-2.3-2.5-4v-9c0-3.9-2.1-7.5-5.6-9.7
				s-7.9-2.5-11.7-1l-12.7,5.3l-4.8-13.3l-56.5-23.4c-0.3-0.1-0.8,0-0.9,0.3c-0.2,0.3,0,0.7,0.4,0.9l55.9,23.2L1211,437
				c0.1,0.3,0.4,0.4,0.7,0.4c0.1,0,0.2,0,0.2,0c0.4-0.1,0.6-0.5,0.4-0.8l-14.8-40.7l12.8-5.4c3.4-1.4,7.3-1.1,10.4,0.9
				c3.1,1.9,4.9,5.1,4.9,8.6v9c0,2.2,1.2,4.1,3.2,5.1c0.9,0.5,2,0.7,3,0.7c1.2,0,2.3-0.3,3.3-0.9l6.6-4c0.4,0.3,0.9,0.5,1.5,0.5
				c0.1,0,0.1,0,0.2,0c0.5,0,0.9-0.2,1.2-0.5c0,1.7,4.8,5.7,11.3,9.1c1.4,0.8,2.8,1.5,4.2,2c0.8-0.6,1.5-1.4,2-2.3
				c0.6-0.9,0.9-1.8,1.1-2.8C1262,415.3,1260.7,414.5,1259.2,413.7z M1243.3,409.4c-0.6,0-1.1-0.4-1.2-0.9c-0.1-0.5,0.4-1,1-1.1
				c0.6,0,1.1,0.4,1.2,0.9C1244.3,408.9,1243.9,409.4,1243.3,409.4z"/>
		</g>
		<g id="HEAD_2_">
			<g id="NECK">
				<polygon class="st3" points="1146,422.3 1136.3,472.9 1169.4,449 1169.4,417.4 				"/>
				<polygon class="st14" points="1146,422.3 1144.8,428.6 1159.5,456.1 1169.4,449 1169.4,417.4 				"/>
			</g>
			<g id="HAIR">
				<path class="st5" d="M1150.2,390.4c0,0-16.6-3.9-21.7,5.1c-5.2,9,10,11.5,10.6,8.3c0.3-1.4-27.2-1.4-22.6,18.1
					c4.8,20.3,26.5,13.3,26.5,13.3l2.5-13.1L1150.2,390.4z"/>
				<path class="st5" d="M1169.2,419.5c0,0-24.7,30.2-3,43c17.4,10.3,21.9-4.2,17.3-6.2c-5.1-2.2-16.7,38.7,19.1,38.5
					c35.9-0.1,24.9-42.1,6.8-56c-8.6-6.6-37.5-25.2-37.5-25.2L1169.2,419.5z"/>
			</g>
			<g id="HEAD_3_">
				<path class="st3" d="M1168.4,412l1.9,1.1c1.8,1.1,2.3,3.3,1.2,5l-0.4,0.5c-1.2,1.7-3.5,2.2-5.4,1.1l-2-1.2
					c-2.2,1.5-15.5,9.8-23.7,1.5c-8-8,10.4-31.4,10.4-31.4c15.6,4.6,21.7,17.6,21.7,17.6L1168.4,412z"/>
				<g>
					<path class="st13" d="M1145.4,394c0,0,4.3,1.5,3.9,5c-0.4,3.5-4.3,8.9-3.4,9.9c0.9,0.9,2.2,1.1,2.2,1.1"/>
					<path class="st13" d="M1144.4,412c0,0,3.2,1.7,7.6,1"/>
					
						<ellipse transform="matrix(0.3963 -0.9181 0.9181 0.3963 325.0576 1307.9519)" class="st14" cx="1157.2" cy="406.8" rx="1.8" ry="1"/>
					
						<ellipse transform="matrix(0.3972 -0.9177 0.9177 0.3972 321.6961 1293.0458)" class="st14" cx="1145.2" cy="401.6" rx="1.5" ry="0.9"/>
					<path class="st13" d="M1167.1,416.2c0.7-1.1,2.3-1.4,3.4-0.7"/>
					<path class="st13" d="M1157.4,400.6c0,0,3.2,0.8,4.9,4.4"/>
				</g>
			</g>
			<path id="HAIR_1_" class="st5" d="M1162.2,394.7c0,0-3.5,10.8,6.5,18.2c5.9,4.4,6.2-0.9,6.2-0.9S1174.1,401.4,1162.2,394.7z"/>
		</g>
	</g>
</g>
<g id="_x31__CHARACTER">
	<g id="DRESS">
		<path class="st15" d="M930.2,672.5c-2.8-9.4-48.3-0.6-98.4,16.5c-48,16.4-87,38.4-87.4,47.3L718,556.6c-0.4-2.5-2.7-4.4-5.4-4.4
			c-1.5,0-2.9,0.6-3.9,1.5c-1,0.9-1.6,2.2-1.6,3.6v153.5l0,0c-0.3-4.2-11.9-7.6-26.1-7.6c-14.2,0-25.8,3.4-26.1,7.6l0,0V538.4
			c0-14.6,8.1-28,21.4-35.6l17.3-9.8l71.1-40.2l66.1-37.7v-64.3c0,2.8,12.2,5,26.5,5c14.3,0,26.5-2.2,26.5-5v69.7
			c0,15.4-8.1,30-20.9,39.7l-40.2,26.9c-6.9,4.6-8.5,13.5-3.7,20c26.7,36.1,108.6,141.5,111.3,164.7
			C930.2,672.1,930.2,672.3,930.2,672.5z"/>
		<line class="st9" x1="829.9" y1="409.7" x2="829.9" y2="428.6"/>
		<polygon class="st9" points="693.6,493 781.2,547.9 764.6,452.9 745.7,463.4 750.1,502.4 712.5,482 		"/>
		<path class="st16" d="M927.4,674.9c-3.2-8.1-44.9,1.3-95.1,18.3c-50.2,17.1-88.7,38.7-85.5,46.8c3.2,8.1,46.8-0.3,97-17.4
			S930.5,683,927.4,674.9z"/>
	</g>
	<g id="LEGS">
		<g id="RIGHT_LEG">
			<path class="st17" d="M813.1,844.7l-2.9,4.7l-3.2,5.3c-27.7,3.2-32.6-13.7-32.6-13.7l4.2-7.8C789.8,839.6,804,843,813.1,844.7z"
				/>
			<path class="st5" d="M912.9,721.2C893.2,753,822.4,846,822.4,846s-3.7-0.4-9.3-1.4c-9.1-1.7-23.3-5.1-34.5-11.5
				c-2.6-1.5-5-3.1-7.2-5l51.3-97.6l13-25.6l7.2-14.2c0.9-0.3,1.7-0.6,2.6-0.8c0.4-0.1,0.8-0.3,1.3-0.4c1.3-0.4,2.5-0.8,3.8-1.2
				c1.1-0.3,2.1-0.6,3.1-1c3.1-1,6.2-1.9,9.2-2.8c20.1-6,37.3-10,48.9-11.2c2.6,3.4,5.5,8.2,7.2,14.3
				C921.4,696.5,921.1,708,912.9,721.2z"/>
			<g>
				<path class="st12" d="M826.9,917.2c-0.9,3.7-5.8,5-8.6,2.3l-63.5-59.2l19.9-19.4c0,0,4.6,16.9,32.3,13.7
					C829.4,886.3,829.4,907,826.9,917.2z"/>
				<path class="st8" d="M824.3,921c-4.3,1.5-9.2,0.7-12.7-2.1l-33.1-27.3c-0.8-0.7-0.9-1.8-0.2-2.7c0.7-0.8,0.6-1.9-0.2-2.6
					l-2.7-2.5c-0.7-0.7-1.9-0.7-2.7-0.1l-0.6,0.5c-0.8,0.6-1.9,0.6-2.6,0l-17.8-14.5c-2.3-1.9-2.4-5.2-0.2-7.2l3.1-2.8l63.9,60.4
					c1.8,1.7,4.5,1.8,6.4,0.6L824.3,921z"/>
				<g>
					<path class="st18" d="M815.7,862.5c0,0,5.4,4.5-7.5,9.9"/>
					<path class="st18" d="M819.1,867.9c0,0,5.4,4.5-7.5,9.9"/>
					<path class="st18" d="M822.4,873.3c0,0,5.4,4.5-7.5,9.9"/>
				</g>
			</g>
			<path class="st7" d="M918.9,687.6c-17.1,0-34.6,2.8-51.4,7.1c-1.3-4.4-3.2-7.9-4.7-10.2c20.1-6,37.3-10,48.9-11.2
				C914.3,676.7,917.3,681.6,918.9,687.6z"/>
		</g>
		<g id="LEFT_LEG">
			<path class="st17" d="M741,842.2l-5.1,6.1l-4,4.8c-27.9-0.5-30.1-17.9-30.1-17.9l6.1-8.1l0,0C718.3,834.9,732.6,839.8,741,842.2z
				"/>
			<path class="st5" d="M868.1,714.6c-1.5,6.1-4.8,12.6-10.8,19.4c-24.6,27.7-109.5,110-109.5,110s-33.1-7-47.3-23.7l57.1-76l0,0
				l21.1-28.1c14.5-7.3,33-14.9,53.5-21.9c10.7-3.6,20.9-6.9,30.5-9.8c1.4,2.3,3.4,5.8,4.7,10.2C869.2,700.2,870,707,868.1,714.6z"
				/>
			<g>
				<path class="st12" d="M742,917.6c-1.4,3.5-6.4,4.2-8.8,1.1l-53.8-67.1l22.6-16.5c0,0,1.9,17.4,29.9,17.9
					C749.2,887.4,746,907.9,742,917.6z"/>
				<path class="st8" d="M738.9,920.8c-4.5,1-9.2-0.5-12.2-3.8L698,885.6c-0.7-0.8-0.6-1.9,0.2-2.7c0.8-0.7,0.9-1.8,0.2-2.6
					l-2.3-2.8c-0.6-0.8-1.8-1-2.7-0.4l-0.7,0.4c-0.8,0.5-1.9,0.3-2.6-0.3l-15.5-16.6c-2-2.2-1.6-5.5,0.9-7.1l3.5-2.4l54,68.1
					c1.5,1.9,4.2,2.4,6.2,1.5L738.9,920.8z"/>
				<g>
					<path class="st18" d="M739.8,862.2c0,0,4.6,5.1-8.9,8.8"/>
					<path class="st18" d="M742.9,867.9c0,0,4.6,5.1-8.9,8.8"/>
					<path class="st18" d="M745.4,873.7c0,0,4.6,5.1-8.9,8.8"/>
				</g>
			</g>
			<path class="st7" d="M867.6,694.8c-11,2.9-21.7,6.4-31.9,10.2c-43.9,16.5-77.5,39-77.9,39.3l21.1-28.1
				c14.5-7.3,33-14.9,53.5-21.9c3.6-1.2,7.1-2.4,10.6-3.5c0.9-0.3,1.7-0.6,2.6-0.8c0.4-0.1,0.8-0.3,1.3-0.4c1.3-0.4,2.5-0.8,3.8-1.2
				c1.1-0.3,2.1-0.6,3.1-1c3.1-1,6.2-1.9,9.2-2.8C864.3,686.8,866.2,690.4,867.6,694.8z"/>
		</g>
	</g>
	<g id="ARMS">
		<g id="LEFT_ARM">
			<path class="st10" d="M706.5,714.1c0,4.3-11.4,7.8-25.5,7.8c-14.1,0-25.5-3.5-25.5-7.8c0,0,0-0.1,0-0.2
				c0.3-4.2,11.6-7.6,25.5-7.6c13.9,0,25.2,3.4,25.5,7.6C706.5,714,706.5,714.1,706.5,714.1z"/>
			<path class="st17" d="M696.2,708.4v20.2c0,6.5-3.9,12.5-10,15.6l-10.5,5.2c-2.5,1.3-5.4,1.9-8.3,1.9c-1.2,0-2.1-1-2.1-2
				c0-0.4,0.2-0.9,0.5-1.2l3.9-4.4c0.6-0.6,0.1-1.5-0.8-1.5h-23l-4.2,5c-2.2,2.6-5.6,4.2-9.2,4.2h-1.2c-1.5,0-2.4-1.5-1.7-2.7
				l0.5-0.8c-1.4,0.6-3,0.9-4.6,0.9h-1.2c-1.5,0-2.4-1.5-1.7-2.7l9.4-9.7l6.5-2.4v0l32.5-11.9l0,0v-14.4c3.1-0.4,6.4-0.6,9.9-0.6
				C686.7,706.9,692,707.4,696.2,708.4z"/>
			<line class="st19" x1="637.8" y1="734.8" x2="629.9" y2="747.5"/>
			<path class="st19" d="M667.8,745.9l4.8-5.5c0.9-1.1,0.1-2.7-1.4-2.7"/>
			<path class="st7" d="M696.2,708.4V721c-4.3,0.9-9.5,1.5-15.2,1.5c-3.5,0-6.9-0.2-9.9-0.6v-14.4c3.1-0.4,6.4-0.6,9.9-0.6
				C686.7,706.9,692,707.4,696.2,708.4z"/>
		</g>
		<g id="RIGHT_ARM">
			<path class="st16" d="M883.1,348.3c0,2.8-11.6,5-25.9,5s-25.9-2.2-25.9-5s11.6-5.1,25.9-5.1S883.1,345.5,883.1,348.3z"/>
			<path class="st17" d="M849.3,352.3c-3.2-0.2-6.1-0.5-8.6-0.9v-23.9c0-0.8,0.2-1.6,0.6-2.3l8.2-15.9c1.5-3,4.7-4.8,8.2-4.8h10.1
				l-22.1,38.1c-0.1,0.2-0.2,0.3-0.3,0.5C844.1,346.1,845.7,349.9,849.3,352.3z"/>
			<path class="st7" d="M868.3,342.7l3.3-5.3v14.4c-2.7,0.3-5.7,0.6-8.9,0.7L868.3,342.7z"/>
			<g>
				<g>
					<path class="st12" d="M915.9,259.3L862.1,352c-2,3.4-7.5,4.3-12.2,1.8c-4.8-2.4-7-7.2-5-10.6l53.8-92.7L915.9,259.3z"/>
					
						<ellipse transform="matrix(0.3929 -0.9196 0.9196 0.3929 316.4246 989.1303)" class="st20" cx="907.3" cy="254.9" rx="7.2" ry="9.7"/>
				</g>
				<path class="st8" d="M883,293.3l25.4-19.7l-0.4,7.2l8.1,1.9l-19.4,11.2c14.9-3,41.7-7.2,45.8,0.1c1.6,2.9-1.4,8.8-3.4,13.1
					c-1.3,9,49-2.1,49.6-2.3l-7.7,6.7l7.7,4.1c0,0-42.2,7.5-53,5.5c-6.1-1.2-1.3-8.9,3-14.6c1.3-4.4-9.1-5.8-52.6-1.4L883,293.3z"/>
				<ellipse class="st12" cx="883.3" cy="298.1" rx="7.5" ry="7"/>
			</g>
			<path class="st17" d="M889.2,321.7l-2.4,5.3l-2.8,6.2l-1.5,3.4l-2.3,5.1c-0.1,0.1-0.1,0.3-0.2,0.4c0,0,0,0,0,0
				c-0.8,1.2-2.2,2-3.8,2h-18.5c-2.2,0-3.8-2-2.9-3.8l1.3-3l3-6.5l2.5-5.6l2.2-4.9c0.7-1.5,2.3-2.4,4-2.4h18.5
				C888.5,317.9,890.1,319.8,889.2,321.7z"/>
			<g>
				<path class="st19" d="M862.1,325.2c0.8-0.8,1.9-1.3,3.1-1.3h17.7c1.9,0,3.2,1.5,3,3.1"/>
				<path class="st19" d="M859.7,330.8c0.8-0.7,1.8-1.1,2.9-1.1h17.7c2,0,3.4,1.8,2.9,3.5"/>
				<path class="st19" d="M856.9,337.3c0.8-0.7,1.8-1.1,2.9-1.1h17.7c2.1,0,3.5,1.9,2.9,3.7l0,0"/>
			</g>
			<path class="st17" d="M878,304.5v0.4c0,4.5-3.9,8.2-8.7,8.2h-9.1v-8.6H878z"/>
		</g>
	</g>
	<g id="HEAD">
		<g id="CAP_1_">
			<path class="st4" d="M656,496.8c-0.8,1.2-1.7,2.3-2.6,3.3c-0.9-0.2-1.9-0.6-2.7-1.1c-0.8-0.5-1.5-1.2-2.1-1.9
				c0.7-1.1,1.4-2.3,2.3-3.5c4.3-5.9,8.8-10,10.2-9.1C662.6,485.4,660.3,490.9,656,496.8z"/>
			<path class="st15" d="M694.7,408.2l-32.8,45.3c-0.4,0.5,0.2,1.2,0.8,1l15.7-4.7c-1.9,2.1-3.1,4.9-3.1,7.9v14.3
				c0,5.6-4.8,10.1-10.7,10.3c-0.4-0.6-1.1-1.1-2-1.1c-0.6,0-1.2,0.2-1.6,0.6c-0.4,0.4-0.7,0.9-0.6,1.5c0,1.1,1,2.1,2.2,2.1l0,0
				c1.1,0,2-0.8,2.2-1.8c6.6-0.3,11.8-5.4,11.8-11.6v-14.3c0-3.6,1.9-6.9,4.7-8.8l31.5-9.5l40.5-31.3H694.7z M663.3,483.9
				c-0.2,0.1-0.4,0.2-0.6,0.2c-0.2,0-0.4-0.1-0.6-0.2c-0.2-0.1-0.2-0.3-0.2-0.5c0-0.2,0.1-0.4,0.2-0.5c0.2-0.1,0.4-0.2,0.6-0.2l0,0
				c0.2,0,0.4,0.1,0.6,0.2c0.2,0.1,0.2,0.3,0.2,0.5C663.5,483.5,663.4,483.7,663.3,483.9z"/>
			<g>
				<path class="st15" d="M659.1,453.5c-0.1,0-0.3,0-0.4-0.1c-0.3-0.2-0.4-0.6-0.2-0.9l34.2-47.3h61.9c0.4,0,0.7,0.3,0.7,0.7
					c0,0.4-0.3,0.7-0.7,0.7h-61.2l-33.8,46.7C659.5,453.4,659.3,453.5,659.1,453.5z"/>
			</g>
			<g>
				<path class="st21" d="M693.6,445.9l-3.9-1.7l0.2-0.6c0.1-0.2,2-5.4,6.7-11c4.4-5.1,12.1-11.5,23.9-12.5l0.7,0l0.7,4.6l-1.4,0.2
					l-0.5-3.4c-11,1.2-18.2,7.1-22.3,12c-3.7,4.3-5.6,8.6-6.2,10l2.8,1.2L693.6,445.9z"/>
			</g>
		</g>
		<g id="HEAD_4_">
			<g id="NECK_1_">
				<polygon class="st17" points="713.6,481.7 705.6,457.4 724.3,448.8 731.9,454.3 745.1,463.7 749.1,500.9 				"/>
				<polygon class="st7" points="731.9,454.3 731.9,454.3 717.7,483.9 713.6,481.7 705.6,457.4 724.3,448.8 				"/>
			</g>
			<path id="HEAD_5_" class="st17" d="M716.1,459c-1.3,0.1-4-1.2-7.1-3l-3.6,2.7c-2.1,1.6-5.1,1.3-6.8-0.6c-0.7-0.8-1.1-1.9-1.1-2.9
				c0-1.3,0.6-2.6,1.8-3.5l1.5-1.1c-3.9-2.7-6.9-5-6.9-5s6.7-18.8,28.1-20.8c0,0,11.3,22,12.1,24C734.9,450.9,723.7,458.2,716.1,459
				z"/>
			<path id="HAIR_2_" class="st4" d="M700.8,450.6c-3.9-2.7-6.9-5-6.9-5s2.5-7,9.2-12.9C696.1,439.3,706.6,446.6,700.8,450.6z"/>
			<g id="FACE">
				<path class="st19" d="M704.5,437.9c0,0,1.1-2.9,4-4.3"/>
				<path class="st19" d="M725,430.6c0,0-4-0.5-5.9,0.6s-2,7,1.2,10.6"/>
				<path class="st19" d="M722.1,445.6c0,0-2.4,2-6.6,0.5"/>
				<path class="st19" d="M715.9,445c0,0-0.9,1.2-0.8,2.5"/>
				
					<ellipse transform="matrix(0.9575 -0.2885 0.2885 0.9575 -96.7783 223.6726)" class="st7" cx="710.4" cy="440.1" rx="0.8" ry="1.5"/>
				
					<ellipse transform="matrix(0.9578 -0.2873 0.2873 0.9578 -94.6562 225.8478)" class="st7" cx="722.2" cy="435.4" rx="0.7" ry="1.4"/>
				<path class="st19" d="M710.4,457.5l-6.1-4.4c-0.7-0.5-1.6-0.4-2.3,0.1l-0.4,0.3c-0.7,0.6-0.7,1.7,0,2.3"/>
			</g>
		</g>
	</g>
</g>
</svg>
